G04 #@! TF.FileFunction,Paste,Top*
%FSLAX46Y46*%
G04 Gerber Fmt 4.6, Leading zero omitted, Abs format (unit mm)*
G04 Created by KiCad (PCBNEW (2014-12-16 BZR 5324)-product) date Monday, 27 April 2015 11:32:26 am*
%MOMM*%
G01*
G04 APERTURE LIST*
%ADD10C,0.100000*%
%ADD11R,1.250000X1.000000*%
%ADD12R,1.198880X1.198880*%
%ADD13R,0.449580X1.998980*%
%ADD14R,1.998980X0.449580*%
%ADD15R,0.700000X1.300000*%
%ADD16R,1.000000X2.250000*%
%ADD17R,5.600700X2.100580*%
%ADD18R,1.600200X2.600960*%
%ADD19R,1.500000X1.300000*%
%ADD20R,0.508000X1.143000*%
%ADD21R,0.300000X1.600000*%
%ADD22R,2.032000X3.657600*%
%ADD23R,2.032000X1.016000*%
%ADD24R,3.657600X2.032000*%
%ADD25R,1.016000X2.032000*%
%ADD26R,1.350000X0.400000*%
G04 APERTURE END LIST*
D10*
D11*
X127762000Y-82058000D03*
X127762000Y-84058000D03*
D12*
X80068420Y-86055200D03*
X82166460Y-86055200D03*
D13*
X129649220Y-98160840D03*
X128849120Y-98160840D03*
X128049020Y-98160840D03*
X127248920Y-98160840D03*
X126448820Y-98160840D03*
X125648720Y-98160840D03*
X124848620Y-98160840D03*
X124048520Y-98160840D03*
X124053600Y-88595200D03*
X129667000Y-88595200D03*
X128854200Y-88595200D03*
X128041400Y-88595200D03*
X127254000Y-88595200D03*
X126441200Y-88595200D03*
X125653800Y-88595200D03*
X124841000Y-88595200D03*
D14*
X122047000Y-96169480D03*
X122047000Y-95371920D03*
X122047000Y-94569280D03*
X122047000Y-93771720D03*
X122047000Y-92969080D03*
X122047000Y-92171520D03*
X122047000Y-91368880D03*
X122047000Y-90571320D03*
X131648200Y-96164400D03*
X131648200Y-95377000D03*
X131648200Y-94564200D03*
X131648200Y-93776800D03*
X131648200Y-92989400D03*
X131648200Y-92176600D03*
X131648200Y-91363800D03*
X131648200Y-90551000D03*
D15*
X80192840Y-84160360D03*
X82092840Y-84160360D03*
X118023600Y-94234000D03*
X119923600Y-94234000D03*
D16*
X112588800Y-110543600D03*
X114588800Y-110543600D03*
X112588800Y-104543600D03*
X114588800Y-104543600D03*
D17*
X123167140Y-107086400D03*
X132864860Y-107086400D03*
D11*
X133362700Y-83334100D03*
X133362700Y-81334100D03*
X126949200Y-103463600D03*
X126949200Y-101463600D03*
X129184400Y-103463600D03*
X129184400Y-101463600D03*
D18*
X127736600Y-113093500D03*
X127736600Y-116695220D03*
X135813800Y-73936860D03*
X135813800Y-70335140D03*
D11*
X118160800Y-97094800D03*
X118160800Y-99094800D03*
X137185400Y-102747320D03*
X137185400Y-100747320D03*
D12*
X126067820Y-71805800D03*
X123969780Y-71805800D03*
D19*
X130534400Y-71780400D03*
X127834400Y-71780400D03*
D20*
X113157000Y-80010000D03*
X114427000Y-80010000D03*
X115697000Y-80010000D03*
X116967000Y-80010000D03*
X118237000Y-80010000D03*
X119507000Y-80010000D03*
X120777000Y-80010000D03*
X120777000Y-73660000D03*
X119507000Y-73660000D03*
X116967000Y-73660000D03*
X115697000Y-73660000D03*
X114427000Y-73660000D03*
X113157000Y-73660000D03*
X118237000Y-73660000D03*
X131318000Y-73660000D03*
X130048000Y-73660000D03*
X128778000Y-73660000D03*
X127508000Y-73660000D03*
X126238000Y-73660000D03*
X124968000Y-73660000D03*
X123698000Y-73660000D03*
X123698000Y-80010000D03*
X124968000Y-80010000D03*
X127508000Y-80010000D03*
X128778000Y-80010000D03*
X130048000Y-80010000D03*
X131318000Y-80010000D03*
X126238000Y-80010000D03*
D21*
X116728000Y-64764000D03*
X117378000Y-64764000D03*
X118028000Y-64764000D03*
X118028000Y-70364000D03*
X117378000Y-70364000D03*
X116728000Y-70364000D03*
X114128000Y-70364000D03*
X114778000Y-70364000D03*
X115428000Y-70364000D03*
X116078000Y-70364000D03*
X116078000Y-64764000D03*
X115428000Y-64764000D03*
X114778000Y-64764000D03*
X114128000Y-64764000D03*
D22*
X116850160Y-113598960D03*
D23*
X123454160Y-113598960D03*
X123454160Y-111312960D03*
X123454160Y-115884960D03*
D24*
X130200400Y-68300600D03*
D25*
X130200400Y-61696600D03*
X127914400Y-61696600D03*
X132486400Y-61696600D03*
D26*
X135826500Y-115379500D03*
X135826500Y-114729500D03*
X135826500Y-114079500D03*
X135826500Y-113429500D03*
X135826500Y-112779500D03*
M02*
