G04 #@! TF.FileFunction,Soldermask,Bot*
%FSLAX46Y46*%
G04 Gerber Fmt 4.6, Leading zero omitted, Abs format (unit mm)*
G04 Created by KiCad (PCBNEW (2014-12-16 BZR 5324)-product) date Monday, 27 April 2015 11:22:56 am*
%MOMM*%
G01*
G04 APERTURE LIST*
%ADD10C,0.100000*%
%ADD11R,1.727200X2.032000*%
%ADD12O,1.727200X2.032000*%
%ADD13R,2.032000X2.032000*%
%ADD14O,2.032000X2.032000*%
%ADD15R,2.032000X1.727200*%
%ADD16O,2.032000X1.727200*%
%ADD17O,0.950000X1.250000*%
%ADD18O,1.550000X1.000000*%
%ADD19R,1.524000X1.524000*%
%ADD20C,1.524000*%
G04 APERTURE END LIST*
D10*
D11*
X81280000Y-81280000D03*
D12*
X83820000Y-81280000D03*
X86360000Y-81280000D03*
X88900000Y-81280000D03*
X91440000Y-81280000D03*
X93980000Y-81280000D03*
X96520000Y-81280000D03*
X99060000Y-81280000D03*
X101600000Y-81280000D03*
X104140000Y-81280000D03*
X106680000Y-81280000D03*
X109220000Y-81280000D03*
D13*
X118922800Y-88442800D03*
D14*
X118922800Y-90982800D03*
D15*
X136093200Y-79349600D03*
D16*
X136093200Y-81889600D03*
X136093200Y-84429600D03*
X136093200Y-86969600D03*
X136093200Y-89509600D03*
X136093200Y-92049600D03*
D11*
X81280000Y-88900000D03*
D12*
X83820000Y-88900000D03*
X86360000Y-88900000D03*
X88900000Y-88900000D03*
X91440000Y-88900000D03*
X93980000Y-88900000D03*
X96520000Y-88900000D03*
X99060000Y-88900000D03*
X101600000Y-88900000D03*
X104140000Y-88900000D03*
X106680000Y-88900000D03*
X109220000Y-88900000D03*
D13*
X109220000Y-60960000D03*
D14*
X109220000Y-63500000D03*
D13*
X109220000Y-106680000D03*
D14*
X109220000Y-109220000D03*
D17*
X135826500Y-116579500D03*
X135826500Y-111579500D03*
D18*
X138526500Y-117579500D03*
X138526500Y-110579500D03*
D19*
X122045000Y-61105000D03*
D20*
X119505000Y-61105000D03*
X116965000Y-61105000D03*
X114425000Y-61105000D03*
X122045000Y-58565000D03*
X119505000Y-58565000D03*
X116965000Y-58565000D03*
X114425000Y-58565000D03*
M02*
