M48
INCH,TZ
T1C0.020
T2C0.022
T3C0.025
T4C0.030
T5C0.040
%
G90
G05
T3
X4.309Y-4.12
X4.3996Y-2.3524
X4.404Y-2.8163
X4.41Y-3.322
X4.4373Y-3.4932
X4.4525Y-3.2925
X4.4548Y-3.2325
X4.471Y-4.045
X4.474Y-2.98
X4.4775Y-3.6073
X4.4869Y-3.5323
X4.4909Y-3.2613
X4.495Y-3.8434
X4.5006Y-3.4484
X4.5084Y-3.4928
X4.5161Y-3.3703
X4.5176Y-3.2975
X4.5289Y-3.4135
X4.5337Y-2.9837
X4.5571Y-2.3524
X4.5694Y-3.3472
X4.5694Y-3.3472
X4.6006Y-3.6806
X4.6006Y-3.6806
X4.605Y-3.823
X4.713Y-3.9353
X4.719Y-2.7702
X4.7562Y-3.054
X4.757Y-4.327
X4.762Y-3.832
X4.762Y-3.898
X4.762Y-3.898
X4.762Y-4.126
X4.762Y-4.126
X4.78Y-3.094
X4.802Y-3.35
X4.826Y-3.192
X4.832Y-3.3997
X4.862Y-3.086
X4.887Y-3.3451
X4.896Y-3.692
X4.898Y-3.596
X4.8996Y-3.642
X4.9041Y-3.3867
X4.915Y-4.056
X4.948Y-3.374
X4.9495Y-3.6845
X4.9495Y-3.6845
X4.9495Y-3.6845
X4.9495Y-3.6845
X4.953Y-3.949
X4.9728Y-3.618
X4.9735Y-3.5635
X4.9735Y-3.5635
X4.9735Y-3.5635
X4.992Y-3.358
X5.0318Y-3.5726
X5.0342Y-3.6984
X5.0356Y-3.6302
X5.042Y-4.128
X5.063Y-3.3842
X5.063Y-3.3842
X5.105Y-3.3125
X5.1116Y-3.6976
X5.1116Y-3.6976
X5.1161Y-3.5965
X5.1416Y-3.5258
X5.1416Y-3.5258
X5.1456Y-3.4794
X5.15Y-3.915
X5.15Y-3.975
X5.155Y-3.3115
X5.155Y-3.3115
X5.155Y-3.3115
X5.155Y-3.3115
X5.155Y-3.3115
X5.185Y-3.84
X5.203Y-2.826
X5.205Y-2.936
X5.205Y-2.936
X5.205Y-2.936
X5.2104Y-3.3452
X5.2106Y-3.4522
X5.228Y-3.5265
X5.258Y-3.629
X5.261Y-2.993
X5.2615Y-3.066
X5.262Y-3.706
X5.4025Y-3.791
X5.4025Y-3.791
X5.413Y-2.995
X5.4325Y-2.7695
X5.4444Y-3.424
X5.45Y-3.626
X5.45Y-3.626
X5.45Y-3.626
X5.4526Y-3.6838
X5.4526Y-3.6838
X5.4526Y-3.6838
X5.4526Y-3.6838
T4
X4.5049Y-2.3057
X4.5049Y-2.4057
X4.6049Y-2.3057
X4.6049Y-2.4057
X4.7049Y-2.3057
X4.7049Y-2.4057
X4.8049Y-2.3057
X4.8049Y-2.4057
T5
X3.2Y-3.2
X3.2Y-3.5
X3.3Y-3.2
X3.3Y-3.5
X3.4Y-3.2
X3.4Y-3.5
X3.5Y-3.2
X3.5Y-3.5
X3.6Y-3.2
X3.6Y-3.5
X3.7Y-3.2
X3.7Y-3.5
X3.8Y-3.2
X3.8Y-3.5
X3.9Y-3.2
X3.9Y-3.5
X4.Y-3.2
X4.Y-3.5
X4.1Y-3.2
X4.1Y-3.5
X4.2Y-3.2
X4.2Y-3.5
X4.3Y-2.4
X4.3Y-2.5
X4.3Y-3.2
X4.3Y-3.5
X4.3Y-4.2
X4.3Y-4.3
X4.682Y-3.482
X4.682Y-3.582
X5.358Y-3.124
X5.358Y-3.224
X5.358Y-3.324
X5.358Y-3.424
X5.358Y-3.524
X5.358Y-3.624
T1
X5.4666Y-4.3535G85X5.441Y-4.3535
G05
X5.4666Y-4.6291G85X5.441Y-4.6291
G05
T2
X5.3475Y-4.3988G85X5.3475Y-4.387
G05
X5.3475Y-4.5956G85X5.3475Y-4.5838
G05
T0
M30
